<svg width="164" height="164" viewBox="0 0 164 164" fill="none" xmlns="http://www.w3.org/2000/svg">
<path d="M64.916 106.491V57.5096C64.917 56.8968 65.0829 56.2955 65.3961 55.7688C65.7094 55.242 66.1586 54.8093 66.6966 54.5158C67.2346 54.2224 67.8416 54.079 68.4541 54.1008C69.0666 54.1226 69.6619 54.3087 70.1777 54.6396L108.28 79.1234C108.763 79.4326 109.16 79.8581 109.435 80.3608C109.71 80.8635 109.854 81.4273 109.854 82.0003C109.854 82.5733 109.71 83.1371 109.435 83.6398C109.16 84.1425 108.763 84.568 108.28 84.8771L70.1777 109.368C69.6619 109.699 69.0666 109.885 68.4541 109.907C67.8416 109.928 67.2346 109.785 66.6966 109.492C66.1586 109.198 65.7094 108.765 65.3961 108.239C65.0829 107.712 64.917 107.111 64.916 106.498V106.491Z" fill="#E2E2E2"/>
<path d="M6.83398 81.9997C6.83398 40.4872 40.4882 6.83301 82.0006 6.83301C123.513 6.83301 157.167 40.4872 157.167 81.9997C157.167 123.512 123.513 157.166 82.0006 157.166C40.4882 157.166 6.83398 123.512 6.83398 81.9997ZM82.0006 17.083C64.7837 17.083 48.2719 23.9224 36.0976 36.0967C23.9234 48.2709 17.084 64.7827 17.084 81.9997C17.084 99.2166 23.9234 115.728 36.0976 127.903C48.2719 140.077 64.7837 146.916 82.0006 146.916C99.2176 146.916 115.729 140.077 127.904 127.903C140.078 115.728 146.917 99.2166 146.917 81.9997C146.917 64.7827 140.078 48.2709 127.904 36.0967C115.729 23.9224 99.2176 17.083 82.0006 17.083Z" fill="#E2E2E2"/>
</svg>
