<svg width="28" height="26" viewBox="0 0 28 26" fill="none" xmlns="http://www.w3.org/2000/svg">
<path d="M5.78113 0.959961C6.44112 0.959961 7.62512 1.16396 7.62512 2.78896C7.62512 4.41396 6.45312 5.03896 5.78113 5.03896C5.10913 5.03896 4.07812 4.40096 4.07812 2.78896C4.07812 1.17596 5.21112 0.959961 5.78113 0.959961ZM2.15613 2.99996C2.81613 2.99996 4.00012 3.20296 4.00012 4.82796C4.00012 6.45296 2.82812 7.07796 2.15613 7.07796C1.48413 7.07796 0.453125 6.44096 0.453125 4.82796C0.453125 3.21596 1.58613 2.99996 2.15613 2.99996ZM12.0001 2.78896C12.0001 1.16396 10.8161 0.960961 10.1561 0.960961C9.58613 0.960961 8.45312 1.17596 8.45312 2.78896C8.45312 4.40096 9.48413 5.03896 10.1561 5.03896C10.8281 5.03896 12.0001 4.41396 12.0001 2.78896ZM13.7031 2.99996C14.3631 2.99996 15.5471 3.20296 15.5471 4.82796C15.5471 6.45296 14.3751 7.07796 13.7031 7.07796C13.0311 7.07796 12.0001 6.44096 12.0001 4.82796C12.0001 3.21596 13.1331 2.99996 13.7031 2.99996ZM12.9841 10.969C12.9841 8.04696 11.0941 5.51596 8.00012 5.51596C4.90613 5.51596 3.04712 7.98396 3.04712 10.969C3.04712 13.453 6.00812 13.453 7.99312 13.453H8.00012C10.2031 13.453 12.9841 13.375 12.9841 10.969ZM14.1561 15.047C14.8161 15.047 16.0001 15.25 16.0001 16.875C16.0001 18.5 14.8281 19.125 14.1561 19.125C13.4841 19.125 12.4531 18.487 12.4531 16.875C12.4531 15.262 13.5861 15.047 14.1561 15.047ZM19.6251 14.836C19.6251 13.211 18.4411 13.008 17.7811 13.008C17.2111 13.008 16.0781 13.223 16.0781 14.836C16.0781 16.448 17.1091 17.086 17.7811 17.086C18.4531 17.086 19.6251 16.461 19.6251 14.836ZM22.1561 13.008C22.8161 13.008 24.0001 13.211 24.0001 14.836C24.0001 16.461 22.8281 17.086 22.1561 17.086C21.4841 17.086 20.4531 16.448 20.4531 14.836C20.4531 13.223 21.5861 13.008 22.1561 13.008ZM27.5471 16.875C27.5471 15.25 26.3631 15.047 25.7031 15.047C25.1331 15.047 24.0001 15.262 24.0001 16.875C24.0001 18.487 25.0311 19.125 25.7031 19.125C26.3751 19.125 27.5471 18.5 27.5471 16.875ZM20.0001 17.563C23.0941 17.563 24.9841 20.093 24.9841 23.016C24.9841 25.422 22.2041 25.5 20.0001 25.5H19.9921C18.0081 25.5 15.0471 25.5 15.0471 23.016C15.0471 20.031 16.9071 17.563 20.0001 17.563Z" fill="#101828"/>
</svg>
