<svg width="28" height="25" viewBox="0 0 28 25" fill="none" xmlns="http://www.w3.org/2000/svg">
<path d="M5.78113 0.459961C6.44112 0.459961 7.62512 0.663961 7.62512 2.28896C7.62512 3.91396 6.45312 4.53896 5.78113 4.53896C5.10913 4.53896 4.07812 3.90096 4.07812 2.28896C4.07812 0.675961 5.21112 0.459961 5.78113 0.459961ZM2.15613 2.49996C2.81613 2.49996 4.00012 2.70296 4.00012 4.32796C4.00012 5.95296 2.82812 6.57796 2.15613 6.57796C1.48413 6.57796 0.453125 5.94096 0.453125 4.32796C0.453125 2.71596 1.58613 2.49996 2.15613 2.49996ZM12.0001 2.28896C12.0001 0.663961 10.8161 0.460961 10.1561 0.460961C9.58613 0.460961 8.45312 0.675961 8.45312 2.28896C8.45312 3.90096 9.48413 4.53896 10.1561 4.53896C10.8281 4.53896 12.0001 3.91396 12.0001 2.28896ZM13.7031 2.49996C14.3631 2.49996 15.5471 2.70296 15.5471 4.32796C15.5471 5.95296 14.3751 6.57796 13.7031 6.57796C13.0311 6.57796 12.0001 5.94096 12.0001 4.32796C12.0001 2.71596 13.1331 2.49996 13.7031 2.49996ZM12.9841 10.469C12.9841 7.54696 11.0941 5.01596 8.00012 5.01596C4.90613 5.01596 3.04712 7.48396 3.04712 10.469C3.04712 12.953 6.00812 12.953 7.99312 12.953H8.00012C10.2031 12.953 12.9841 12.875 12.9841 10.469ZM14.1561 14.547C14.8161 14.547 16.0001 14.75 16.0001 16.375C16.0001 18 14.8281 18.625 14.1561 18.625C13.4841 18.625 12.4531 17.987 12.4531 16.375C12.4531 14.762 13.5861 14.547 14.1561 14.547ZM19.6251 14.336C19.6251 12.711 18.4411 12.508 17.7811 12.508C17.2111 12.508 16.0781 12.723 16.0781 14.336C16.0781 15.948 17.1091 16.586 17.7811 16.586C18.4531 16.586 19.6251 15.961 19.6251 14.336ZM22.1561 12.508C22.8161 12.508 24.0001 12.711 24.0001 14.336C24.0001 15.961 22.8281 16.586 22.1561 16.586C21.4841 16.586 20.4531 15.948 20.4531 14.336C20.4531 12.723 21.5861 12.508 22.1561 12.508ZM27.5471 16.375C27.5471 14.75 26.3631 14.547 25.7031 14.547C25.1331 14.547 24.0001 14.762 24.0001 16.375C24.0001 17.987 25.0311 18.625 25.7031 18.625C26.3751 18.625 27.5471 18 27.5471 16.375ZM20.0001 17.063C23.0941 17.063 24.9841 19.593 24.9841 22.516C24.9841 24.922 22.2041 25 20.0001 25H19.9921C18.0081 25 15.0471 25 15.0471 22.516C15.0471 19.531 16.9071 17.063 20.0001 17.063Z" fill="white"/>
</svg>
